<svg xmlns="http://www.w3.org/2000/svg" viewBox="0 0 32 32" width="64" height="64"><rect width="32" height="32" fill="none"/><path d="M10.4 26c-3.6-2.6-5-6.4-5-10.4V9.4a1.8 1.8 0 0 1 3.6 0v4.2V6.4a1.9 1.9 0 0 1 3.8 0v7V5.6a1.9 1.9 0 0 1 3.8 0v7.8V8a1.8 1.8 0 0 1 3.6 0v9.4c0 4.6-2.4 8.6-6 8.6z" fill="#FFF6E8" stroke="#6B4A3A" stroke-width="1.8" stroke-linejoin="round"/>
<path d="M23 6l2.6-2M25.4 11.4l3.2-.6" fill="none" stroke="#F3D08A" stroke-width="1.5" stroke-linecap="round" stroke-linejoin="round"/></svg>