<svg xmlns="http://www.w3.org/2000/svg" viewBox="0 0 32 32" width="64" height="64"><rect width="32" height="32" fill="none"/><path d="M16 7.6c5 0 8.6 3.5 8.6 8.4 0 5.2-3.8 8.6-8.6 8.6s-8.6-3.4-8.6-8.6c0-4.9 3.6-8.4 8.6-8.4z" fill="#E4574C" stroke="#6B4A3A" stroke-width="1.8" stroke-linejoin="round"/><path d="M16 8.2V5.4M16 6.6c-1.5-1.6-3.2-1.9-4.4-1.6.5 1.6 2 2.7 4.4 2.6zM16 6.6c1.5-1.6 3.2-1.9 4.4-1.6-.5 1.6-2 2.7-4.4 2.6z" fill="#8FC79A" stroke="#6B4A3A" stroke-width="1.6" stroke-linejoin="round"/><path d="M11.2 15.6q1.4-1.6 2.8 0M18 15.6q1.4-1.6 2.8 0" fill="none" stroke="#6B4A3A" stroke-width="1.7" stroke-linecap="round" stroke-linejoin="round"/><path d="M13.2 19.7h5.6" fill="none" stroke="#6B4A3A" stroke-width="1.7" stroke-linecap="round" stroke-linejoin="round"/><ellipse cx="9.6" cy="18.2" rx="2.1" ry="1.4" fill="#F5B9C5"/><ellipse cx="22.4" cy="18.2" rx="2.1" ry="1.4" fill="#F5B9C5"/></svg>